<svg width="64" height="64" viewBox="0 0 64 64" fill="none" xmlns="http://www.w3.org/2000/svg" role="img" aria-label="RAFT">
  <defs>
    <linearGradient id="g" x1="8" y1="6" x2="56" y2="58" gradientUnits="userSpaceOnUse">
      <stop stop-color="#0a56a2" />
      <stop offset="0.5" stop-color="#1888ec" />
      <stop offset="1" stop-color="#1fa496" />
    </linearGradient>
  </defs>
  <rect x="2" y="2" width="60" height="60" rx="16" fill="url(#g)" />
  <path d="M14 40c4 0 4-3.4 8-3.4S26 40 30 40s4-3.4 8-3.4S42 40 46 40" stroke="white" stroke-opacity="0.92" stroke-width="3.4" stroke-linecap="round" fill="none" />
  <path d="M14 48c4 0 4-3.4 8-3.4S26 48 30 48s4-3.4 8-3.4S42 48 46 48" stroke="white" stroke-opacity="0.55" stroke-width="3.4" stroke-linecap="round" fill="none" />
  <path d="M32 12c4.6 6 8 10.4 8 15a8 8 0 1 1-16 0c0-4.6 3.4-9 8-15Z" fill="white" />
</svg>
