<svg width="1200" height="630" viewBox="0 0 1200 630" fill="none" xmlns="http://www.w3.org/2000/svg">
  <defs>
    <linearGradient id="bg" x1="0" y1="0" x2="1200" y2="630" gradientUnits="userSpaceOnUse">
      <stop stop-color="#0c2747" />
      <stop offset="0.55" stop-color="#0a56a2" />
      <stop offset="1" stop-color="#136a64" />
    </linearGradient>
    <linearGradient id="mark" x1="80" y1="70" x2="200" y2="190" gradientUnits="userSpaceOnUse">
      <stop stop-color="#43a8fd" />
      <stop offset="1" stop-color="#7cdac9" />
    </linearGradient>
  </defs>
  <rect width="1200" height="630" fill="url(#bg)" />
  <g opacity="0.16" stroke="#ffffff" stroke-width="2" fill="none">
    <path d="M0 470c120 0 120-40 240-40s120 40 240 40 120-40 240-40 120 40 240 40 120-40 240-40" />
    <path d="M0 520c120 0 120-40 240-40s120 40 240 40 120-40 240-40 120 40 240 40 120-40 240-40" />
    <path d="M0 570c120 0 120-40 240-40s120 40 240 40 120-40 240-40 120 40 240 40 120-40 240-40" />
  </g>
  <rect x="80" y="74" width="96" height="96" rx="24" fill="url(#mark)" />
  <path d="M104 150c11 0 11-9 22-9s11 9 22 9 11-9 22-9 11 9 22 9" stroke="#0c2747" stroke-width="6" stroke-linecap="round" fill="none" />
  <path d="M128 102c11 13 18 22 18 31a18 18 0 1 1-36 0c0-9 7-18 18-31Z" fill="#0c2747" />
  <text x="200" y="128" font-family="'Space Grotesk', 'Inter', sans-serif" font-size="58" font-weight="700" fill="#ffffff">RAFT</text>
  <text x="200" y="160" font-family="'Inter', sans-serif" font-size="22" font-weight="500" fill="#b9dfff" letter-spacing="2">IIT HYDERABAD</text>
  <text x="80" y="320" font-family="'Space Grotesk', 'Inter', sans-serif" font-size="64" font-weight="700" fill="#ffffff">Rainfall. Runoff.</text>
  <text x="80" y="392" font-family="'Space Grotesk', 'Inter', sans-serif" font-size="64" font-weight="700" fill="#7cdac9">Flood resilience.</text>
  <text x="80" y="448" font-family="'Inter', sans-serif" font-size="26" font-weight="400" fill="#dcefff">Hydroinformatics &amp; AI for climate-resilient water futures</text>
</svg>
